<?xml version="1.0" encoding="UTF-8" standalone="no"?>
<svg
   xmlns:dc="http://purl.org/dc/elements/1.1/"
   xmlns:cc="http://creativecommons.org/ns#"
   xmlns:rdf="http://www.w3.org/1999/02/22-rdf-syntax-ns#"
   xmlns:svg="http://www.w3.org/2000/svg"
   xmlns="http://www.w3.org/2000/svg"
   xmlns:sodipodi="http://sodipodi.sourceforge.net/DTD/sodipodi-0.dtd"
   xmlns:inkscape="http://www.inkscape.org/namespaces/inkscape"
   width="13.185"
   height="13.185"
   viewBox="0 0 13.185 13.185"
   version="1.1"
   id="svg34"
   sodipodi:docname="clear.svg"
   inkscape:version="1.0.2 (e86c8708, 2021-01-15)">
  <metadata
     id="metadata40">
    <rdf:RDF>
      <cc:Work
         rdf:about="">
        <dc:format>image/svg+xml</dc:format>
        <dc:type
           rdf:resource="http://purl.org/dc/dcmitype/StillImage" />
      </cc:Work>
    </rdf:RDF>
  </metadata>
  <defs
     id="defs38" />
  <sodipodi:namedview
     pagecolor="#ffffff"
     bordercolor="#666666"
     borderopacity="1"
     objecttolerance="10"
     gridtolerance="10"
     guidetolerance="10"
     inkscape:pageopacity="0"
     inkscape:pageshadow="2"
     inkscape:window-width="2265"
     inkscape:window-height="1277"
     id="namedview36"
     showgrid="false"
     inkscape:zoom="72"
     inkscape:cx="2.7105556"
     inkscape:cy="1.7869444"
     inkscape:window-x="1975"
     inkscape:window-y="83"
     inkscape:window-maximized="0"
     inkscape:current-layer="g28" />
  <!-- Generator: Sketch 52.5 (67469) - http://www.bohemiancoding.com/sketch -->
  <title
     id="title22">clear</title>
  <desc
     id="desc24">Created with Sketch.</desc>
  <g
     id="Icons"
     stroke="none"
     stroke-width="1"
     fill="none"
     fill-rule="evenodd"
     transform="translate(-0.4075,-0.4075)">
    <g
       id="Rounded"
       transform="translate(-615,-1487)">
      <g
         id="Content"
         transform="translate(100,1428)">
        <g
           id="-Round-/-Content-/-clear"
           transform="translate(510,54)">
          <g
             id="g28">
            <path
               d="m 18.3,5.71 c -0.39,-0.39 -1.02,-0.39 -1.41,0 L 12,10.59 7.11,5.7 C 6.72,5.31 6.09,5.31 5.7,5.7 5.31,6.09 5.31,6.72 5.7,7.11 L 10.59,12 5.7,16.89 c -0.39,0.39 -0.39,1.02 0,1.41 0.39,0.39 1.02,0.39 1.41,0 L 12,13.41 16.89,18.3 c 0.39,0.39 1.02,0.39 1.41,0 0.39,-0.39 0.39,-1.02 0,-1.41 L 13.41,12 18.3,7.11 c 0.38,-0.38 0.38,-1.02 0,-1.4 z"
               id="🔹Icon-Color"
               fill="#1d1d1d" />
          </g>
        </g>
      </g>
    </g>
  </g>
</svg>
