<?xml version="1.0" encoding="UTF-8" standalone="no"?>
<svg
   xmlns:dc="http://purl.org/dc/elements/1.1/"
   xmlns:cc="http://creativecommons.org/ns#"
   xmlns:rdf="http://www.w3.org/1999/02/22-rdf-syntax-ns#"
   xmlns:svg="http://www.w3.org/2000/svg"
   xmlns="http://www.w3.org/2000/svg"
   xmlns:sodipodi="http://sodipodi.sourceforge.net/DTD/sodipodi-0.dtd"
   xmlns:inkscape="http://www.inkscape.org/namespaces/inkscape"
   version="1.1"
   viewBox="0 0 115.9 115.9"
   enable-background="new 0 0 129 129"
   id="svg14"
   sodipodi:docname="search.svg"
   width="115.9"
   height="115.9"
   inkscape:version="1.0.2 (e86c8708, 2021-01-15)">
  <metadata
     id="metadata20">
    <rdf:RDF>
      <cc:Work
         rdf:about="">
        <dc:format>image/svg+xml</dc:format>
        <dc:type
           rdf:resource="http://purl.org/dc/dcmitype/StillImage" />
      </cc:Work>
    </rdf:RDF>
  </metadata>
  <defs
     id="defs18" />
  <sodipodi:namedview
     pagecolor="#ffffff"
     bordercolor="#666666"
     borderopacity="1"
     objecttolerance="10"
     gridtolerance="10"
     guidetolerance="10"
     inkscape:pageopacity="0"
     inkscape:pageshadow="2"
     inkscape:window-width="1746"
     inkscape:window-height="1096"
     id="namedview16"
     showgrid="false"
     inkscape:zoom="6.1550388"
     inkscape:cx="58"
     inkscape:cy="58"
     inkscape:window-x="2510"
     inkscape:window-y="118"
     inkscape:window-maximized="0"
     inkscape:current-layer="svg14" />
  <g
     id="g12"
     transform="translate(-6.5,-6.5)">
    <path
       d="m 51.6,96.7 c 11,0 21,-3.9 28.8,-10.5 l 35,35 c 0.8,0.8 1.8,1.2 2.9,1.2 1.1,0 2.1,-0.4 2.9,-1.2 1.6,-1.6 1.6,-4.2 0,-5.8 l -35,-35 C 92.7,72.6 96.7,62.5 96.7,51.6 96.7,26.7 76.5,6.5 51.6,6.5 26.8,6.5 6.5,26.8 6.5,51.6 c 0,24.9 20.3,45.1 45.1,45.1 z m 0,-82 C 72,14.7 88.5,31.3 88.5,51.6 88.5,72 72,88.5 51.6,88.5 31.2,88.5 14.7,71.9 14.7,51.6 14.7,31.3 31.3,14.7 51.6,14.7 Z"
       id="path10" />
  </g>
</svg>
